<?xml version="1.0" encoding="utf-8" standalone="no"?>
<!DOCTYPE svg PUBLIC "-//W3C//DTD SVG 1.1//EN"
  "http://www.w3.org/Graphics/SVG/1.1/DTD/svg11.dtd">
<svg xmlns:xlink="http://www.w3.org/1999/xlink" width="864pt" height="576pt" viewBox="0 0 864 576" xmlns="http://www.w3.org/2000/svg" version="1.1">
 <metadata>
  <rdf:RDF xmlns:dc="http://purl.org/dc/elements/1.1/" xmlns:cc="http://creativecommons.org/ns#" xmlns:rdf="http://www.w3.org/1999/02/22-rdf-syntax-ns#">
   <cc:Work>
    <dc:type rdf:resource="http://purl.org/dc/dcmitype/StillImage"/>
    <dc:date>2026-02-19T13:35:14.228373</dc:date>
    <dc:format>image/svg+xml</dc:format>
    <dc:creator>
     <cc:Agent>
      <dc:title>Matplotlib v3.10.8, https://matplotlib.org/</dc:title>
     </cc:Agent>
    </dc:creator>
   </cc:Work>
  </rdf:RDF>
 </metadata>
 <defs>
  <style type="text/css">*{stroke-linejoin: round; stroke-linecap: butt}</style>
 </defs>
 <g id="figure_1">
  <g id="patch_1">
   <path d="M 0 576 
L 864 576 
L 864 0 
L 0 0 
z
" style="fill: #ffffff"/>
  </g>
  <g id="axes_1">
   <g id="patch_2">
    <path d="M 41.517115 252.707885 
L 427.68 252.707885 
L 427.68 19.638052 
L 41.517115 19.638052 
z
" style="fill: #ffffff"/>
   </g>
   <g id="matplotlib.axis_1">
    <g id="xtick_1">
     <g id="line2d_1">
      <path d="M 59.069973 252.707885 
L 59.069973 19.638052 
" clip-path="url(#p35e7e0c455)" style="fill: none; stroke-dasharray: 5.12,1.28,0.8,1.28; stroke-dashoffset: 0; stroke: #b0b0b0; stroke-width: 0.8"/>
     </g>
     <g id="line2d_2">
      <defs>
       <path id="m013e3cfca9" d="M 0 0 
L 0 3.5 
" style="stroke: #000000; stroke-width: 3"/>
      </defs>
      <g>
       <use xlink:href="#m013e3cfca9" x="59.069973" y="252.707885" style="stroke: #000000; stroke-width: 3"/>
      </g>
     </g>
     <g id="text_1">
      <!-- 0.0 -->
      <g style="fill: #3b4252" transform="translate(51.118411 267.306323) scale(0.1 -0.1)">
       <defs>
        <path id="DejaVuSans-30" d="M 2034 4250 
Q 1547 4250 1301 3770 
Q 1056 3291 1056 2328 
Q 1056 1369 1301 889 
Q 1547 409 2034 409 
Q 2525 409 2770 889 
Q 3016 1369 3016 2328 
Q 3016 3291 2770 3770 
Q 2525 4250 2034 4250 
z
M 2034 4750 
Q 2819 4750 3233 4129 
Q 3647 3509 3647 2328 
Q 3647 1150 3233 529 
Q 2819 -91 2034 -91 
Q 1250 -91 836 529 
Q 422 1150 422 2328 
Q 422 3509 836 4129 
Q 1250 4750 2034 4750 
z
" transform="scale(0.015625)"/>
        <path id="DejaVuSans-2e" d="M 684 794 
L 1344 794 
L 1344 0 
L 684 0 
L 684 794 
z
" transform="scale(0.015625)"/>
       </defs>
       <use xlink:href="#DejaVuSans-30"/>
       <use xlink:href="#DejaVuSans-2e" transform="translate(63.623047 0)"/>
       <use xlink:href="#DejaVuSans-30" transform="translate(95.410156 0)"/>
      </g>
     </g>
    </g>
    <g id="xtick_2">
     <g id="line2d_3">
      <path d="M 129.281407 252.707885 
L 129.281407 19.638052 
" clip-path="url(#p35e7e0c455)" style="fill: none; stroke-dasharray: 5.12,1.28,0.8,1.28; stroke-dashoffset: 0; stroke: #b0b0b0; stroke-width: 0.8"/>
     </g>
     <g id="line2d_4">
      <g>
       <use xlink:href="#m013e3cfca9" x="129.281407" y="252.707885" style="stroke: #000000; stroke-width: 3"/>
      </g>
     </g>
     <g id="text_2">
      <!-- 0.2 -->
      <g style="fill: #3b4252" transform="translate(121.329845 267.306323) scale(0.1 -0.1)">
       <defs>
        <path id="DejaVuSans-32" d="M 1228 531 
L 3431 531 
L 3431 0 
L 469 0 
L 469 531 
Q 828 903 1448 1529 
Q 2069 2156 2228 2338 
Q 2531 2678 2651 2914 
Q 2772 3150 2772 3378 
Q 2772 3750 2511 3984 
Q 2250 4219 1831 4219 
Q 1534 4219 1204 4116 
Q 875 4013 500 3803 
L 500 4441 
Q 881 4594 1212 4672 
Q 1544 4750 1819 4750 
Q 2544 4750 2975 4387 
Q 3406 4025 3406 3419 
Q 3406 3131 3298 2873 
Q 3191 2616 2906 2266 
Q 2828 2175 2409 1742 
Q 1991 1309 1228 531 
z
" transform="scale(0.015625)"/>
       </defs>
       <use xlink:href="#DejaVuSans-30"/>
       <use xlink:href="#DejaVuSans-2e" transform="translate(63.623047 0)"/>
       <use xlink:href="#DejaVuSans-32" transform="translate(95.410156 0)"/>
      </g>
     </g>
    </g>
    <g id="xtick_3">
     <g id="line2d_5">
      <path d="M 199.492841 252.707885 
L 199.492841 19.638052 
" clip-path="url(#p35e7e0c455)" style="fill: none; stroke-dasharray: 5.12,1.28,0.8,1.28; stroke-dashoffset: 0; stroke: #b0b0b0; stroke-width: 0.8"/>
     </g>
     <g id="line2d_6">
      <g>
       <use xlink:href="#m013e3cfca9" x="199.492841" y="252.707885" style="stroke: #000000; stroke-width: 3"/>
      </g>
     </g>
     <g id="text_3">
      <!-- 0.4 -->
      <g style="fill: #3b4252" transform="translate(191.541278 267.306323) scale(0.1 -0.1)">
       <defs>
        <path id="DejaVuSans-34" d="M 2419 4116 
L 825 1625 
L 2419 1625 
L 2419 4116 
z
M 2253 4666 
L 3047 4666 
L 3047 1625 
L 3713 1625 
L 3713 1100 
L 3047 1100 
L 3047 0 
L 2419 0 
L 2419 1100 
L 313 1100 
L 313 1709 
L 2253 4666 
z
" transform="scale(0.015625)"/>
       </defs>
       <use xlink:href="#DejaVuSans-30"/>
       <use xlink:href="#DejaVuSans-2e" transform="translate(63.623047 0)"/>
       <use xlink:href="#DejaVuSans-34" transform="translate(95.410156 0)"/>
      </g>
     </g>
    </g>
    <g id="xtick_4">
     <g id="line2d_7">
      <path d="M 269.704274 252.707885 
L 269.704274 19.638052 
" clip-path="url(#p35e7e0c455)" style="fill: none; stroke-dasharray: 5.12,1.28,0.8,1.28; stroke-dashoffset: 0; stroke: #b0b0b0; stroke-width: 0.8"/>
     </g>
     <g id="line2d_8">
      <g>
       <use xlink:href="#m013e3cfca9" x="269.704274" y="252.707885" style="stroke: #000000; stroke-width: 3"/>
      </g>
     </g>
     <g id="text_4">
      <!-- 0.6 -->
      <g style="fill: #3b4252" transform="translate(261.752712 267.306323) scale(0.1 -0.1)">
       <defs>
        <path id="DejaVuSans-36" d="M 2113 2584 
Q 1688 2584 1439 2293 
Q 1191 2003 1191 1497 
Q 1191 994 1439 701 
Q 1688 409 2113 409 
Q 2538 409 2786 701 
Q 3034 994 3034 1497 
Q 3034 2003 2786 2293 
Q 2538 2584 2113 2584 
z
M 3366 4563 
L 3366 3988 
Q 3128 4100 2886 4159 
Q 2644 4219 2406 4219 
Q 1781 4219 1451 3797 
Q 1122 3375 1075 2522 
Q 1259 2794 1537 2939 
Q 1816 3084 2150 3084 
Q 2853 3084 3261 2657 
Q 3669 2231 3669 1497 
Q 3669 778 3244 343 
Q 2819 -91 2113 -91 
Q 1303 -91 875 529 
Q 447 1150 447 2328 
Q 447 3434 972 4092 
Q 1497 4750 2381 4750 
Q 2619 4750 2861 4703 
Q 3103 4656 3366 4563 
z
" transform="scale(0.015625)"/>
       </defs>
       <use xlink:href="#DejaVuSans-30"/>
       <use xlink:href="#DejaVuSans-2e" transform="translate(63.623047 0)"/>
       <use xlink:href="#DejaVuSans-36" transform="translate(95.410156 0)"/>
      </g>
     </g>
    </g>
    <g id="xtick_5">
     <g id="line2d_9">
      <path d="M 339.915708 252.707885 
L 339.915708 19.638052 
" clip-path="url(#p35e7e0c455)" style="fill: none; stroke-dasharray: 5.12,1.28,0.8,1.28; stroke-dashoffset: 0; stroke: #b0b0b0; stroke-width: 0.8"/>
     </g>
     <g id="line2d_10">
      <g>
       <use xlink:href="#m013e3cfca9" x="339.915708" y="252.707885" style="stroke: #000000; stroke-width: 3"/>
      </g>
     </g>
     <g id="text_5">
      <!-- 0.8 -->
      <g style="fill: #3b4252" transform="translate(331.964145 267.306323) scale(0.1 -0.1)">
       <defs>
        <path id="DejaVuSans-38" d="M 2034 2216 
Q 1584 2216 1326 1975 
Q 1069 1734 1069 1313 
Q 1069 891 1326 650 
Q 1584 409 2034 409 
Q 2484 409 2743 651 
Q 3003 894 3003 1313 
Q 3003 1734 2745 1975 
Q 2488 2216 2034 2216 
z
M 1403 2484 
Q 997 2584 770 2862 
Q 544 3141 544 3541 
Q 544 4100 942 4425 
Q 1341 4750 2034 4750 
Q 2731 4750 3128 4425 
Q 3525 4100 3525 3541 
Q 3525 3141 3298 2862 
Q 3072 2584 2669 2484 
Q 3125 2378 3379 2068 
Q 3634 1759 3634 1313 
Q 3634 634 3220 271 
Q 2806 -91 2034 -91 
Q 1263 -91 848 271 
Q 434 634 434 1313 
Q 434 1759 690 2068 
Q 947 2378 1403 2484 
z
M 1172 3481 
Q 1172 3119 1398 2916 
Q 1625 2713 2034 2713 
Q 2441 2713 2670 2916 
Q 2900 3119 2900 3481 
Q 2900 3844 2670 4047 
Q 2441 4250 2034 4250 
Q 1625 4250 1398 4047 
Q 1172 3844 1172 3481 
z
" transform="scale(0.015625)"/>
       </defs>
       <use xlink:href="#DejaVuSans-30"/>
       <use xlink:href="#DejaVuSans-2e" transform="translate(63.623047 0)"/>
       <use xlink:href="#DejaVuSans-38" transform="translate(95.410156 0)"/>
      </g>
     </g>
    </g>
    <g id="xtick_6">
     <g id="line2d_11">
      <path d="M 410.127142 252.707885 
L 410.127142 19.638052 
" clip-path="url(#p35e7e0c455)" style="fill: none; stroke-dasharray: 5.12,1.28,0.8,1.28; stroke-dashoffset: 0; stroke: #b0b0b0; stroke-width: 0.8"/>
     </g>
     <g id="line2d_12">
      <g>
       <use xlink:href="#m013e3cfca9" x="410.127142" y="252.707885" style="stroke: #000000; stroke-width: 3"/>
      </g>
     </g>
     <g id="text_6">
      <!-- 1.0 -->
      <g style="fill: #3b4252" transform="translate(402.175579 267.306323) scale(0.1 -0.1)">
       <defs>
        <path id="DejaVuSans-31" d="M 794 531 
L 1825 531 
L 1825 4091 
L 703 3866 
L 703 4441 
L 1819 4666 
L 2450 4666 
L 2450 531 
L 3481 531 
L 3481 0 
L 794 0 
L 794 531 
z
" transform="scale(0.015625)"/>
       </defs>
       <use xlink:href="#DejaVuSans-31"/>
       <use xlink:href="#DejaVuSans-2e" transform="translate(63.623047 0)"/>
       <use xlink:href="#DejaVuSans-30" transform="translate(95.410156 0)"/>
      </g>
     </g>
    </g>
    <g id="text_7">
     <!-- x -->
     <g transform="translate(231.047307 282.504135) scale(0.12 -0.12)">
      <defs>
       <path id="DejaVuSans-78" d="M 3513 3500 
L 2247 1797 
L 3578 0 
L 2900 0 
L 1881 1375 
L 863 0 
L 184 0 
L 1544 1831 
L 300 3500 
L 978 3500 
L 1906 2253 
L 2834 3500 
L 3513 3500 
z
" transform="scale(0.015625)"/>
      </defs>
      <use xlink:href="#DejaVuSans-78"/>
     </g>
    </g>
   </g>
   <g id="matplotlib.axis_2">
    <g id="ytick_1">
     <g id="line2d_13">
      <path d="M 41.517115 242.113802 
L 427.68 242.113802 
" clip-path="url(#p35e7e0c455)" style="fill: none; stroke-dasharray: 5.12,1.28,0.8,1.28; stroke-dashoffset: 0; stroke: #b0b0b0; stroke-width: 0.8"/>
     </g>
     <g id="line2d_14">
      <defs>
       <path id="mca2363ef0f" d="M 0 0 
L -3.5 0 
" style="stroke: #000000; stroke-width: 3"/>
      </defs>
      <g>
       <use xlink:href="#mca2363ef0f" x="41.517115" y="242.113802" style="stroke: #000000; stroke-width: 3"/>
      </g>
     </g>
     <g id="text_8">
      <!-- 0.0 -->
      <g style="fill: #3b4252" transform="translate(18.61399 245.91302) scale(0.1 -0.1)">
       <use xlink:href="#DejaVuSans-30"/>
       <use xlink:href="#DejaVuSans-2e" transform="translate(63.623047 0)"/>
       <use xlink:href="#DejaVuSans-30" transform="translate(95.410156 0)"/>
      </g>
     </g>
    </g>
    <g id="ytick_2">
     <g id="line2d_15">
      <path d="M 41.517115 199.735545 
L 427.68 199.735545 
" clip-path="url(#p35e7e0c455)" style="fill: none; stroke-dasharray: 5.12,1.28,0.8,1.28; stroke-dashoffset: 0; stroke: #b0b0b0; stroke-width: 0.8"/>
     </g>
     <g id="line2d_16">
      <g>
       <use xlink:href="#mca2363ef0f" x="41.517115" y="199.735545" style="stroke: #000000; stroke-width: 3"/>
      </g>
     </g>
     <g id="text_9">
      <!-- 0.2 -->
      <g style="fill: #3b4252" transform="translate(18.61399 203.534763) scale(0.1 -0.1)">
       <use xlink:href="#DejaVuSans-30"/>
       <use xlink:href="#DejaVuSans-2e" transform="translate(63.623047 0)"/>
       <use xlink:href="#DejaVuSans-32" transform="translate(95.410156 0)"/>
      </g>
     </g>
    </g>
    <g id="ytick_3">
     <g id="line2d_17">
      <path d="M 41.517115 157.357287 
L 427.68 157.357287 
" clip-path="url(#p35e7e0c455)" style="fill: none; stroke-dasharray: 5.12,1.28,0.8,1.28; stroke-dashoffset: 0; stroke: #b0b0b0; stroke-width: 0.8"/>
     </g>
     <g id="line2d_18">
      <g>
       <use xlink:href="#mca2363ef0f" x="41.517115" y="157.357287" style="stroke: #000000; stroke-width: 3"/>
      </g>
     </g>
     <g id="text_10">
      <!-- 0.4 -->
      <g style="fill: #3b4252" transform="translate(18.61399 161.156506) scale(0.1 -0.1)">
       <use xlink:href="#DejaVuSans-30"/>
       <use xlink:href="#DejaVuSans-2e" transform="translate(63.623047 0)"/>
       <use xlink:href="#DejaVuSans-34" transform="translate(95.410156 0)"/>
      </g>
     </g>
    </g>
    <g id="ytick_4">
     <g id="line2d_19">
      <path d="M 41.517115 114.97903 
L 427.68 114.97903 
" clip-path="url(#p35e7e0c455)" style="fill: none; stroke-dasharray: 5.12,1.28,0.8,1.28; stroke-dashoffset: 0; stroke: #b0b0b0; stroke-width: 0.8"/>
     </g>
     <g id="line2d_20">
      <g>
       <use xlink:href="#mca2363ef0f" x="41.517115" y="114.97903" style="stroke: #000000; stroke-width: 3"/>
      </g>
     </g>
     <g id="text_11">
      <!-- 0.6 -->
      <g style="fill: #3b4252" transform="translate(18.61399 118.778249) scale(0.1 -0.1)">
       <use xlink:href="#DejaVuSans-30"/>
       <use xlink:href="#DejaVuSans-2e" transform="translate(63.623047 0)"/>
       <use xlink:href="#DejaVuSans-36" transform="translate(95.410156 0)"/>
      </g>
     </g>
    </g>
    <g id="ytick_5">
     <g id="line2d_21">
      <path d="M 41.517115 72.600773 
L 427.68 72.600773 
" clip-path="url(#p35e7e0c455)" style="fill: none; stroke-dasharray: 5.12,1.28,0.8,1.28; stroke-dashoffset: 0; stroke: #b0b0b0; stroke-width: 0.8"/>
     </g>
     <g id="line2d_22">
      <g>
       <use xlink:href="#mca2363ef0f" x="41.517115" y="72.600773" style="stroke: #000000; stroke-width: 3"/>
      </g>
     </g>
     <g id="text_12">
      <!-- 0.8 -->
      <g style="fill: #3b4252" transform="translate(18.61399 76.399992) scale(0.1 -0.1)">
       <use xlink:href="#DejaVuSans-30"/>
       <use xlink:href="#DejaVuSans-2e" transform="translate(63.623047 0)"/>
       <use xlink:href="#DejaVuSans-38" transform="translate(95.410156 0)"/>
      </g>
     </g>
    </g>
    <g id="ytick_6">
     <g id="line2d_23">
      <path d="M 41.517115 30.222516 
L 427.68 30.222516 
" clip-path="url(#p35e7e0c455)" style="fill: none; stroke-dasharray: 5.12,1.28,0.8,1.28; stroke-dashoffset: 0; stroke: #b0b0b0; stroke-width: 0.8"/>
     </g>
     <g id="line2d_24">
      <g>
       <use xlink:href="#mca2363ef0f" x="41.517115" y="30.222516" style="stroke: #000000; stroke-width: 3"/>
      </g>
     </g>
     <g id="text_13">
      <!-- 1.0 -->
      <g style="fill: #3b4252" transform="translate(18.61399 34.021735) scale(0.1 -0.1)">
       <use xlink:href="#DejaVuSans-31"/>
       <use xlink:href="#DejaVuSans-2e" transform="translate(63.623047 0)"/>
       <use xlink:href="#DejaVuSans-30" transform="translate(95.410156 0)"/>
      </g>
     </g>
    </g>
    <g id="text_14">
     <!-- $f(\lambda , x)$ -->
     <g transform="translate(12.118365 153.152969) rotate(-90) scale(0.12 -0.12)">
      <defs>
       <path id="DejaVuSans-Oblique-66" d="M 3059 4863 
L 2969 4384 
L 2419 4384 
Q 2106 4384 1964 4261 
Q 1822 4138 1753 3809 
L 1691 3500 
L 2638 3500 
L 2553 3053 
L 1606 3053 
L 1013 0 
L 434 0 
L 1031 3053 
L 481 3053 
L 563 3500 
L 1113 3500 
L 1159 3744 
Q 1278 4363 1576 4613 
Q 1875 4863 2516 4863 
L 3059 4863 
z
" transform="scale(0.015625)"/>
       <path id="DejaVuSans-28" d="M 1984 4856 
Q 1566 4138 1362 3434 
Q 1159 2731 1159 2009 
Q 1159 1288 1364 580 
Q 1569 -128 1984 -844 
L 1484 -844 
Q 1016 -109 783 600 
Q 550 1309 550 2009 
Q 550 2706 781 3412 
Q 1013 4119 1484 4856 
L 1984 4856 
z
" transform="scale(0.015625)"/>
       <path id="DejaVuSans-Oblique-3bb" d="M 2350 4316 
L 3125 0 
L 2516 0 
L 2038 2588 
L 328 0 
L -281 0 
L 1903 3356 
L 1794 3975 
Q 1725 4369 1391 4369 
L 1091 4369 
L 1184 4863 
L 1550 4856 
Q 2253 4847 2350 4316 
z
" transform="scale(0.015625)"/>
       <path id="DejaVuSans-2c" d="M 750 794 
L 1409 794 
L 1409 256 
L 897 -744 
L 494 -744 
L 750 256 
L 750 794 
z
" transform="scale(0.015625)"/>
       <path id="DejaVuSans-Oblique-78" d="M 3841 3500 
L 2234 1784 
L 3219 0 
L 2559 0 
L 1819 1388 
L 531 0 
L -166 0 
L 1556 1844 
L 641 3500 
L 1300 3500 
L 1972 2234 
L 3144 3500 
L 3841 3500 
z
" transform="scale(0.015625)"/>
       <path id="DejaVuSans-29" d="M 513 4856 
L 1013 4856 
Q 1481 4119 1714 3412 
Q 1947 2706 1947 2009 
Q 1947 1309 1714 600 
Q 1481 -109 1013 -844 
L 513 -844 
Q 928 -128 1133 580 
Q 1338 1288 1338 2009 
Q 1338 2731 1133 3434 
Q 928 4138 513 4856 
z
" transform="scale(0.015625)"/>
      </defs>
      <use xlink:href="#DejaVuSans-Oblique-66" transform="translate(0 0.015625)"/>
      <use xlink:href="#DejaVuSans-28" transform="translate(35.205078 0.015625)"/>
      <use xlink:href="#DejaVuSans-Oblique-3bb" transform="translate(74.21875 0.015625)"/>
      <use xlink:href="#DejaVuSans-2c" transform="translate(133.398438 0.015625)"/>
      <use xlink:href="#DejaVuSans-Oblique-78" transform="translate(184.667969 0.015625)"/>
      <use xlink:href="#DejaVuSans-29" transform="translate(243.847656 0.015625)"/>
     </g>
    </g>
   </g>
   <g id="line2d_25">
    <path d="M 59.069973 242.113802 
L 62.616005 221.756114 
L 66.162037 203.354313 
L 69.708069 186.720486 
L 73.254101 171.684771 
L 76.800133 158.09363 
L 80.346165 145.808272 
L 83.892197 134.703244 
L 87.438229 124.665143 
L 90.984261 115.591464 
L 94.530293 107.389549 
L 98.076325 99.975641 
L 101.622357 93.274033 
L 105.168389 87.21629 
L 108.714421 81.74055 
L 112.260453 76.790899 
L 115.806485 72.31679 
L 119.352517 68.272536 
L 122.898549 64.616839 
L 126.444581 61.312367 
L 129.990613 58.325375 
L 133.536645 55.625362 
L 137.082677 53.184756 
L 140.628709 50.978633 
L 144.174741 48.984467 
L 147.720773 47.181892 
L 151.266805 45.552501 
L 154.812837 44.079656 
L 158.358869 42.748316 
L 161.904901 41.544886 
L 165.450933 40.457077 
L 168.996965 39.47378 
L 172.542997 38.584955 
L 176.089029 37.781524 
L 179.635061 37.055284 
L 183.181093 36.398819 
L 186.727125 35.805423 
L 190.273157 35.26904 
L 193.819189 34.784189 
L 197.365221 34.345921 
L 200.911253 33.949761 
L 204.457285 33.591662 
L 208.003317 33.267967 
L 211.549349 32.975372 
L 215.095381 32.710888 
L 218.641413 32.471815 
L 222.187445 32.255711 
L 225.733477 32.06037 
L 229.279509 31.883796 
L 232.825541 31.724187 
L 236.371574 31.579912 
L 239.917606 31.449499 
L 243.463638 31.331615 
L 247.00967 31.225057 
L 250.555702 31.128737 
L 254.101734 31.041671 
L 257.647766 30.96297 
L 261.193798 30.89183 
L 264.73983 30.827525 
L 268.285862 30.769398 
L 271.831894 30.716855 
L 275.377926 30.669361 
L 278.923958 30.62643 
L 282.46999 30.587624 
L 286.016022 30.552545 
L 289.562054 30.520838 
L 293.108086 30.492176 
L 296.654118 30.466268 
L 300.20015 30.442849 
L 303.746182 30.421681 
L 307.292214 30.402546 
L 310.838246 30.385249 
L 314.384278 30.369614 
L 317.93031 30.355482 
L 321.476342 30.342707 
L 325.022374 30.331159 
L 328.568406 30.320721 
L 332.114438 30.311286 
L 335.66047 30.302757 
L 339.206502 30.295048 
L 342.752534 30.28808 
L 346.298566 30.28178 
L 349.844598 30.276087 
L 353.39063 30.27094 
L 356.936662 30.266287 
L 360.482694 30.262082 
L 364.028726 30.258281 
L 367.574758 30.254844 
L 371.12079 30.251738 
L 374.666822 30.248931 
L 378.212854 30.246393 
L 381.758886 30.244099 
L 385.304918 30.242025 
L 388.85095 30.240151 
L 392.396982 30.238457 
L 395.943014 30.236925 
L 399.489046 30.235541 
L 403.035078 30.234289 
L 406.58111 30.233158 
L 410.127142 30.232136 
" clip-path="url(#p35e7e0c455)" style="fill: none; stroke: #5e81ac; stroke-width: 1.5; stroke-linecap: square"/>
   </g>
   <g id="patch_3">
    <path d="M 41.517115 252.707885 
L 41.517115 19.638052 
" style="fill: none; stroke: #000000; stroke-width: 0.8; stroke-linejoin: miter; stroke-linecap: square"/>
   </g>
   <g id="patch_4">
    <path d="M 427.68 252.707885 
L 427.68 19.638052 
" style="fill: none; stroke: #000000; stroke-width: 0.8; stroke-linejoin: miter; stroke-linecap: square"/>
   </g>
   <g id="patch_5">
    <path d="M 41.517115 252.707885 
L 427.68 252.707885 
" style="fill: none; stroke: #000000; stroke-width: 0.8; stroke-linejoin: miter; stroke-linecap: square"/>
   </g>
   <g id="patch_6">
    <path d="M 41.517115 19.638052 
L 427.68 19.638052 
" style="fill: none; stroke: #000000; stroke-width: 0.8; stroke-linejoin: miter; stroke-linecap: square"/>
   </g>
   <g id="text_15">
    <!-- $\lambda = 10$ -->
    <g transform="translate(212.898557 13.638052) scale(0.14 -0.14)">
     <defs>
      <path id="DejaVuSans-3d" d="M 678 2906 
L 4684 2906 
L 4684 2381 
L 678 2381 
L 678 2906 
z
M 678 1631 
L 4684 1631 
L 4684 1100 
L 678 1100 
L 678 1631 
z
" transform="scale(0.015625)"/>
     </defs>
     <use xlink:href="#DejaVuSans-Oblique-3bb" transform="translate(0 0.015625)"/>
     <use xlink:href="#DejaVuSans-3d" transform="translate(78.662109 0.015625)"/>
     <use xlink:href="#DejaVuSans-31" transform="translate(181.933594 0.015625)"/>
     <use xlink:href="#DejaVuSans-30" transform="translate(245.556641 0.015625)"/>
    </g>
   </g>
   <g id="legend_1">
    <g id="patch_7">
     <path d="M 49.917115 46.851802 
L 122.277115 46.851802 
Q 124.677115 46.851802 124.677115 44.451802 
L 124.677115 28.038052 
Q 124.677115 25.638052 122.277115 25.638052 
L 49.917115 25.638052 
Q 47.517115 25.638052 47.517115 28.038052 
L 47.517115 44.451802 
Q 47.517115 46.851802 49.917115 46.851802 
z
" style="fill: #ffffff; opacity: 0.8; stroke: #cccccc; stroke-linejoin: miter"/>
    </g>
    <g id="line2d_26">
     <path d="M 52.317115 35.356177 
L 64.317115 35.356177 
L 76.317115 35.356177 
" style="fill: none; stroke: #5e81ac; stroke-width: 1.5; stroke-linecap: square"/>
    </g>
    <g id="text_16">
     <!-- $f(\lambda, x)$ -->
     <g transform="translate(85.917115 39.556177) scale(0.12 -0.12)">
      <use xlink:href="#DejaVuSans-Oblique-66" transform="translate(0 0.015625)"/>
      <use xlink:href="#DejaVuSans-28" transform="translate(35.205078 0.015625)"/>
      <use xlink:href="#DejaVuSans-Oblique-3bb" transform="translate(74.21875 0.015625)"/>
      <use xlink:href="#DejaVuSans-2c" transform="translate(133.398438 0.015625)"/>
      <use xlink:href="#DejaVuSans-Oblique-78" transform="translate(184.667969 0.015625)"/>
      <use xlink:href="#DejaVuSans-29" transform="translate(243.847656 0.015625)"/>
     </g>
    </g>
   </g>
  </g>
  <g id="axes_2">
   <g id="patch_8">
    <path d="M 474.836875 252.707885 
L 860.99976 252.707885 
L 860.99976 19.638052 
L 474.836875 19.638052 
z
" style="fill: #ffffff"/>
   </g>
   <g id="matplotlib.axis_3">
    <g id="xtick_7">
     <g id="line2d_27">
      <path d="M 492.389733 252.707885 
L 492.389733 19.638052 
" clip-path="url(#p327d569916)" style="fill: none; stroke-dasharray: 5.12,1.28,0.8,1.28; stroke-dashoffset: 0; stroke: #b0b0b0; stroke-width: 0.8"/>
     </g>
     <g id="line2d_28">
      <g>
       <use xlink:href="#m013e3cfca9" x="492.389733" y="252.707885" style="stroke: #000000; stroke-width: 3"/>
      </g>
     </g>
     <g id="text_17">
      <!-- 0.0 -->
      <g style="fill: #3b4252" transform="translate(484.438171 267.306323) scale(0.1 -0.1)">
       <use xlink:href="#DejaVuSans-30"/>
       <use xlink:href="#DejaVuSans-2e" transform="translate(63.623047 0)"/>
       <use xlink:href="#DejaVuSans-30" transform="translate(95.410156 0)"/>
      </g>
     </g>
    </g>
    <g id="xtick_8">
     <g id="line2d_29">
      <path d="M 562.601167 252.707885 
L 562.601167 19.638052 
" clip-path="url(#p327d569916)" style="fill: none; stroke-dasharray: 5.12,1.28,0.8,1.28; stroke-dashoffset: 0; stroke: #b0b0b0; stroke-width: 0.8"/>
     </g>
     <g id="line2d_30">
      <g>
       <use xlink:href="#m013e3cfca9" x="562.601167" y="252.707885" style="stroke: #000000; stroke-width: 3"/>
      </g>
     </g>
     <g id="text_18">
      <!-- 0.2 -->
      <g style="fill: #3b4252" transform="translate(554.649605 267.306323) scale(0.1 -0.1)">
       <use xlink:href="#DejaVuSans-30"/>
       <use xlink:href="#DejaVuSans-2e" transform="translate(63.623047 0)"/>
       <use xlink:href="#DejaVuSans-32" transform="translate(95.410156 0)"/>
      </g>
     </g>
    </g>
    <g id="xtick_9">
     <g id="line2d_31">
      <path d="M 632.812601 252.707885 
L 632.812601 19.638052 
" clip-path="url(#p327d569916)" style="fill: none; stroke-dasharray: 5.12,1.28,0.8,1.28; stroke-dashoffset: 0; stroke: #b0b0b0; stroke-width: 0.8"/>
     </g>
     <g id="line2d_32">
      <g>
       <use xlink:href="#m013e3cfca9" x="632.812601" y="252.707885" style="stroke: #000000; stroke-width: 3"/>
      </g>
     </g>
     <g id="text_19">
      <!-- 0.4 -->
      <g style="fill: #3b4252" transform="translate(624.861038 267.306323) scale(0.1 -0.1)">
       <use xlink:href="#DejaVuSans-30"/>
       <use xlink:href="#DejaVuSans-2e" transform="translate(63.623047 0)"/>
       <use xlink:href="#DejaVuSans-34" transform="translate(95.410156 0)"/>
      </g>
     </g>
    </g>
    <g id="xtick_10">
     <g id="line2d_33">
      <path d="M 703.024034 252.707885 
L 703.024034 19.638052 
" clip-path="url(#p327d569916)" style="fill: none; stroke-dasharray: 5.12,1.28,0.8,1.28; stroke-dashoffset: 0; stroke: #b0b0b0; stroke-width: 0.8"/>
     </g>
     <g id="line2d_34">
      <g>
       <use xlink:href="#m013e3cfca9" x="703.024034" y="252.707885" style="stroke: #000000; stroke-width: 3"/>
      </g>
     </g>
     <g id="text_20">
      <!-- 0.6 -->
      <g style="fill: #3b4252" transform="translate(695.072472 267.306323) scale(0.1 -0.1)">
       <use xlink:href="#DejaVuSans-30"/>
       <use xlink:href="#DejaVuSans-2e" transform="translate(63.623047 0)"/>
       <use xlink:href="#DejaVuSans-36" transform="translate(95.410156 0)"/>
      </g>
     </g>
    </g>
    <g id="xtick_11">
     <g id="line2d_35">
      <path d="M 773.235468 252.707885 
L 773.235468 19.638052 
" clip-path="url(#p327d569916)" style="fill: none; stroke-dasharray: 5.12,1.28,0.8,1.28; stroke-dashoffset: 0; stroke: #b0b0b0; stroke-width: 0.8"/>
     </g>
     <g id="line2d_36">
      <g>
       <use xlink:href="#m013e3cfca9" x="773.235468" y="252.707885" style="stroke: #000000; stroke-width: 3"/>
      </g>
     </g>
     <g id="text_21">
      <!-- 0.8 -->
      <g style="fill: #3b4252" transform="translate(765.283905 267.306323) scale(0.1 -0.1)">
       <use xlink:href="#DejaVuSans-30"/>
       <use xlink:href="#DejaVuSans-2e" transform="translate(63.623047 0)"/>
       <use xlink:href="#DejaVuSans-38" transform="translate(95.410156 0)"/>
      </g>
     </g>
    </g>
    <g id="xtick_12">
     <g id="line2d_37">
      <path d="M 843.446902 252.707885 
L 843.446902 19.638052 
" clip-path="url(#p327d569916)" style="fill: none; stroke-dasharray: 5.12,1.28,0.8,1.28; stroke-dashoffset: 0; stroke: #b0b0b0; stroke-width: 0.8"/>
     </g>
     <g id="line2d_38">
      <g>
       <use xlink:href="#m013e3cfca9" x="843.446902" y="252.707885" style="stroke: #000000; stroke-width: 3"/>
      </g>
     </g>
     <g id="text_22">
      <!-- 1.0 -->
      <g style="fill: #3b4252" transform="translate(835.495339 267.306323) scale(0.1 -0.1)">
       <use xlink:href="#DejaVuSans-31"/>
       <use xlink:href="#DejaVuSans-2e" transform="translate(63.623047 0)"/>
       <use xlink:href="#DejaVuSans-30" transform="translate(95.410156 0)"/>
      </g>
     </g>
    </g>
    <g id="text_23">
     <!-- x -->
     <g transform="translate(664.367067 282.504135) scale(0.12 -0.12)">
      <use xlink:href="#DejaVuSans-78"/>
     </g>
    </g>
   </g>
   <g id="matplotlib.axis_4">
    <g id="ytick_7">
     <g id="line2d_39">
      <path d="M 474.836875 242.113802 
L 860.99976 242.113802 
" clip-path="url(#p327d569916)" style="fill: none; stroke-dasharray: 5.12,1.28,0.8,1.28; stroke-dashoffset: 0; stroke: #b0b0b0; stroke-width: 0.8"/>
     </g>
     <g id="line2d_40">
      <g>
       <use xlink:href="#mca2363ef0f" x="474.836875" y="242.113802" style="stroke: #000000; stroke-width: 3"/>
      </g>
     </g>
     <g id="text_24">
      <!-- 0.0 -->
      <g style="fill: #3b4252" transform="translate(451.93375 245.91302) scale(0.1 -0.1)">
       <use xlink:href="#DejaVuSans-30"/>
       <use xlink:href="#DejaVuSans-2e" transform="translate(63.623047 0)"/>
       <use xlink:href="#DejaVuSans-30" transform="translate(95.410156 0)"/>
      </g>
     </g>
    </g>
    <g id="ytick_8">
     <g id="line2d_41">
      <path d="M 474.836875 199.450002 
L 860.99976 199.450002 
" clip-path="url(#p327d569916)" style="fill: none; stroke-dasharray: 5.12,1.28,0.8,1.28; stroke-dashoffset: 0; stroke: #b0b0b0; stroke-width: 0.8"/>
     </g>
     <g id="line2d_42">
      <g>
       <use xlink:href="#mca2363ef0f" x="474.836875" y="199.450002" style="stroke: #000000; stroke-width: 3"/>
      </g>
     </g>
     <g id="text_25">
      <!-- 0.2 -->
      <g style="fill: #3b4252" transform="translate(451.93375 203.249221) scale(0.1 -0.1)">
       <use xlink:href="#DejaVuSans-30"/>
       <use xlink:href="#DejaVuSans-2e" transform="translate(63.623047 0)"/>
       <use xlink:href="#DejaVuSans-32" transform="translate(95.410156 0)"/>
      </g>
     </g>
    </g>
    <g id="ytick_9">
     <g id="line2d_43">
      <path d="M 474.836875 156.786202 
L 860.99976 156.786202 
" clip-path="url(#p327d569916)" style="fill: none; stroke-dasharray: 5.12,1.28,0.8,1.28; stroke-dashoffset: 0; stroke: #b0b0b0; stroke-width: 0.8"/>
     </g>
     <g id="line2d_44">
      <g>
       <use xlink:href="#mca2363ef0f" x="474.836875" y="156.786202" style="stroke: #000000; stroke-width: 3"/>
      </g>
     </g>
     <g id="text_26">
      <!-- 0.4 -->
      <g style="fill: #3b4252" transform="translate(451.93375 160.585421) scale(0.1 -0.1)">
       <use xlink:href="#DejaVuSans-30"/>
       <use xlink:href="#DejaVuSans-2e" transform="translate(63.623047 0)"/>
       <use xlink:href="#DejaVuSans-34" transform="translate(95.410156 0)"/>
      </g>
     </g>
    </g>
    <g id="ytick_10">
     <g id="line2d_45">
      <path d="M 474.836875 114.122403 
L 860.99976 114.122403 
" clip-path="url(#p327d569916)" style="fill: none; stroke-dasharray: 5.12,1.28,0.8,1.28; stroke-dashoffset: 0; stroke: #b0b0b0; stroke-width: 0.8"/>
     </g>
     <g id="line2d_46">
      <g>
       <use xlink:href="#mca2363ef0f" x="474.836875" y="114.122403" style="stroke: #000000; stroke-width: 3"/>
      </g>
     </g>
     <g id="text_27">
      <!-- 0.6 -->
      <g style="fill: #3b4252" transform="translate(451.93375 117.921622) scale(0.1 -0.1)">
       <use xlink:href="#DejaVuSans-30"/>
       <use xlink:href="#DejaVuSans-2e" transform="translate(63.623047 0)"/>
       <use xlink:href="#DejaVuSans-36" transform="translate(95.410156 0)"/>
      </g>
     </g>
    </g>
    <g id="ytick_11">
     <g id="line2d_47">
      <path d="M 474.836875 71.458603 
L 860.99976 71.458603 
" clip-path="url(#p327d569916)" style="fill: none; stroke-dasharray: 5.12,1.28,0.8,1.28; stroke-dashoffset: 0; stroke: #b0b0b0; stroke-width: 0.8"/>
     </g>
     <g id="line2d_48">
      <g>
       <use xlink:href="#mca2363ef0f" x="474.836875" y="71.458603" style="stroke: #000000; stroke-width: 3"/>
      </g>
     </g>
     <g id="text_28">
      <!-- 0.8 -->
      <g style="fill: #3b4252" transform="translate(451.93375 75.257822) scale(0.1 -0.1)">
       <use xlink:href="#DejaVuSans-30"/>
       <use xlink:href="#DejaVuSans-2e" transform="translate(63.623047 0)"/>
       <use xlink:href="#DejaVuSans-38" transform="translate(95.410156 0)"/>
      </g>
     </g>
    </g>
    <g id="ytick_12">
     <g id="line2d_49">
      <path d="M 474.836875 28.794804 
L 860.99976 28.794804 
" clip-path="url(#p327d569916)" style="fill: none; stroke-dasharray: 5.12,1.28,0.8,1.28; stroke-dashoffset: 0; stroke: #b0b0b0; stroke-width: 0.8"/>
     </g>
     <g id="line2d_50">
      <g>
       <use xlink:href="#mca2363ef0f" x="474.836875" y="28.794804" style="stroke: #000000; stroke-width: 3"/>
      </g>
     </g>
     <g id="text_29">
      <!-- 1.0 -->
      <g style="fill: #3b4252" transform="translate(451.93375 32.594022) scale(0.1 -0.1)">
       <use xlink:href="#DejaVuSans-31"/>
       <use xlink:href="#DejaVuSans-2e" transform="translate(63.623047 0)"/>
       <use xlink:href="#DejaVuSans-30" transform="translate(95.410156 0)"/>
      </g>
     </g>
    </g>
   </g>
   <g id="line2d_51">
    <path d="M 492.389733 242.113802 
L 495.935765 231.607655 
L 499.481797 221.618945 
L 503.027829 212.122188 
L 506.573861 203.093154 
L 510.119893 194.508808 
L 513.665925 186.347248 
L 517.211957 178.587653 
L 520.757989 171.210224 
L 524.304021 164.196141 
L 527.850053 157.527507 
L 531.396085 151.187309 
L 534.942117 145.159371 
L 538.488149 139.428314 
L 542.034181 133.979517 
L 545.580213 128.799078 
L 549.126245 123.87378 
L 552.672277 119.191058 
L 556.218309 114.738963 
L 559.764341 110.506138 
L 563.310373 106.481784 
L 566.856405 102.655632 
L 570.402437 99.017922 
L 573.948469 95.559372 
L 577.494501 92.271159 
L 581.040533 89.144893 
L 584.586565 86.172598 
L 588.132597 83.346692 
L 591.678629 80.659964 
L 595.224661 78.105559 
L 598.770693 75.676962 
L 602.316725 73.367974 
L 605.862757 71.172707 
L 609.408789 69.085558 
L 612.954821 67.101203 
L 616.500853 65.21458 
L 620.046885 63.420874 
L 623.592917 61.71551 
L 627.138949 60.094136 
L 630.684981 58.552617 
L 634.231013 57.087018 
L 637.777045 55.693602 
L 641.323077 54.368813 
L 644.869109 53.109271 
L 648.415141 51.911762 
L 651.961173 50.773231 
L 655.507205 49.690775 
L 659.053237 48.66163 
L 662.599269 47.683171 
L 666.145301 46.752903 
L 669.691334 45.868451 
L 673.237366 45.027559 
L 676.783398 44.228081 
L 680.32943 43.467979 
L 683.875462 42.745312 
L 687.421494 42.058237 
L 690.967526 41.405002 
L 694.513558 40.783939 
L 698.05959 40.193463 
L 701.605622 39.632069 
L 705.151654 39.098324 
L 708.697686 38.590867 
L 712.243718 38.108402 
L 715.78975 37.6497 
L 719.335782 37.213588 
L 722.881814 36.798956 
L 726.427846 36.404744 
L 729.973878 36.029948 
L 733.51991 35.673611 
L 737.065942 35.334824 
L 740.611974 35.012722 
L 744.158006 34.706484 
L 747.704038 34.415329 
L 751.25007 34.138513 
L 754.796102 33.87533 
L 758.342134 33.62511 
L 761.888166 33.387213 
L 765.434198 33.161033 
L 768.98023 32.945992 
L 772.526262 32.741543 
L 776.072294 32.547162 
L 779.618326 32.362356 
L 783.164358 32.18665 
L 786.71039 32.019599 
L 790.256422 31.860775 
L 793.802454 31.709773 
L 797.348486 31.566209 
L 800.894518 31.429714 
L 804.44055 31.299943 
L 807.986582 31.176562 
L 811.532614 31.059259 
L 815.078646 30.947732 
L 818.624678 30.841699 
L 822.17071 30.740887 
L 825.716742 30.645041 
L 829.262774 30.553915 
L 832.808806 30.467277 
L 836.354838 30.384907 
L 839.90087 30.306593 
L 843.446902 30.232136 
" clip-path="url(#p327d569916)" style="fill: none; stroke: #d08770; stroke-width: 1.5; stroke-linecap: square"/>
   </g>
   <g id="patch_9">
    <path d="M 474.836875 252.707885 
L 474.836875 19.638052 
" style="fill: none; stroke: #000000; stroke-width: 0.8; stroke-linejoin: miter; stroke-linecap: square"/>
   </g>
   <g id="patch_10">
    <path d="M 860.99976 252.707885 
L 860.99976 19.638052 
" style="fill: none; stroke: #000000; stroke-width: 0.8; stroke-linejoin: miter; stroke-linecap: square"/>
   </g>
   <g id="patch_11">
    <path d="M 474.836875 252.707885 
L 860.99976 252.707885 
" style="fill: none; stroke: #000000; stroke-width: 0.8; stroke-linejoin: miter; stroke-linecap: square"/>
   </g>
   <g id="patch_12">
    <path d="M 474.836875 19.638052 
L 860.99976 19.638052 
" style="fill: none; stroke: #000000; stroke-width: 0.8; stroke-linejoin: miter; stroke-linecap: square"/>
   </g>
   <g id="text_30">
    <!-- $\lambda = 5$ -->
    <g transform="translate(650.698317 13.638052) scale(0.14 -0.14)">
     <defs>
      <path id="DejaVuSans-35" d="M 691 4666 
L 3169 4666 
L 3169 4134 
L 1269 4134 
L 1269 2991 
Q 1406 3038 1543 3061 
Q 1681 3084 1819 3084 
Q 2600 3084 3056 2656 
Q 3513 2228 3513 1497 
Q 3513 744 3044 326 
Q 2575 -91 1722 -91 
Q 1428 -91 1123 -41 
Q 819 9 494 109 
L 494 744 
Q 775 591 1075 516 
Q 1375 441 1709 441 
Q 2250 441 2565 725 
Q 2881 1009 2881 1497 
Q 2881 1984 2565 2268 
Q 2250 2553 1709 2553 
Q 1456 2553 1204 2497 
Q 953 2441 691 2322 
L 691 4666 
z
" transform="scale(0.015625)"/>
     </defs>
     <use xlink:href="#DejaVuSans-Oblique-3bb" transform="translate(0 0.015625)"/>
     <use xlink:href="#DejaVuSans-3d" transform="translate(78.662109 0.015625)"/>
     <use xlink:href="#DejaVuSans-35" transform="translate(181.933594 0.015625)"/>
    </g>
   </g>
   <g id="legend_2">
    <g id="patch_13">
     <path d="M 483.236875 46.851802 
L 555.596875 46.851802 
Q 557.996875 46.851802 557.996875 44.451802 
L 557.996875 28.038052 
Q 557.996875 25.638052 555.596875 25.638052 
L 483.236875 25.638052 
Q 480.836875 25.638052 480.836875 28.038052 
L 480.836875 44.451802 
Q 480.836875 46.851802 483.236875 46.851802 
z
" style="fill: #ffffff; opacity: 0.8; stroke: #cccccc; stroke-linejoin: miter"/>
    </g>
    <g id="line2d_52">
     <path d="M 485.636875 35.356177 
L 497.636875 35.356177 
L 509.636875 35.356177 
" style="fill: none; stroke: #d08770; stroke-width: 1.5; stroke-linecap: square"/>
    </g>
    <g id="text_31">
     <!-- $f(\lambda, x)$ -->
     <g transform="translate(519.236875 39.556177) scale(0.12 -0.12)">
      <use xlink:href="#DejaVuSans-Oblique-66" transform="translate(0 0.015625)"/>
      <use xlink:href="#DejaVuSans-28" transform="translate(35.205078 0.015625)"/>
      <use xlink:href="#DejaVuSans-Oblique-3bb" transform="translate(74.21875 0.015625)"/>
      <use xlink:href="#DejaVuSans-2c" transform="translate(133.398438 0.015625)"/>
      <use xlink:href="#DejaVuSans-Oblique-78" transform="translate(184.667969 0.015625)"/>
      <use xlink:href="#DejaVuSans-29" transform="translate(243.847656 0.015625)"/>
     </g>
    </g>
   </g>
  </g>
  <g id="axes_3">
   <g id="patch_14">
    <path d="M 41.517115 540.707885 
L 427.68 540.707885 
L 427.68 307.638053 
L 41.517115 307.638053 
z
" style="fill: #ffffff"/>
   </g>
   <g id="matplotlib.axis_5">
    <g id="xtick_13">
     <g id="line2d_53">
      <path d="M 59.069973 540.707885 
L 59.069973 307.638053 
" clip-path="url(#p27dc997bdd)" style="fill: none; stroke-dasharray: 5.12,1.28,0.8,1.28; stroke-dashoffset: 0; stroke: #b0b0b0; stroke-width: 0.8"/>
     </g>
     <g id="line2d_54">
      <g>
       <use xlink:href="#m013e3cfca9" x="59.069973" y="540.707885" style="stroke: #000000; stroke-width: 3"/>
      </g>
     </g>
     <g id="text_32">
      <!-- 0.0 -->
      <g style="fill: #3b4252" transform="translate(51.118411 555.306322) scale(0.1 -0.1)">
       <use xlink:href="#DejaVuSans-30"/>
       <use xlink:href="#DejaVuSans-2e" transform="translate(63.623047 0)"/>
       <use xlink:href="#DejaVuSans-30" transform="translate(95.410156 0)"/>
      </g>
     </g>
    </g>
    <g id="xtick_14">
     <g id="line2d_55">
      <path d="M 129.281407 540.707885 
L 129.281407 307.638053 
" clip-path="url(#p27dc997bdd)" style="fill: none; stroke-dasharray: 5.12,1.28,0.8,1.28; stroke-dashoffset: 0; stroke: #b0b0b0; stroke-width: 0.8"/>
     </g>
     <g id="line2d_56">
      <g>
       <use xlink:href="#m013e3cfca9" x="129.281407" y="540.707885" style="stroke: #000000; stroke-width: 3"/>
      </g>
     </g>
     <g id="text_33">
      <!-- 0.2 -->
      <g style="fill: #3b4252" transform="translate(121.329845 555.306322) scale(0.1 -0.1)">
       <use xlink:href="#DejaVuSans-30"/>
       <use xlink:href="#DejaVuSans-2e" transform="translate(63.623047 0)"/>
       <use xlink:href="#DejaVuSans-32" transform="translate(95.410156 0)"/>
      </g>
     </g>
    </g>
    <g id="xtick_15">
     <g id="line2d_57">
      <path d="M 199.492841 540.707885 
L 199.492841 307.638053 
" clip-path="url(#p27dc997bdd)" style="fill: none; stroke-dasharray: 5.12,1.28,0.8,1.28; stroke-dashoffset: 0; stroke: #b0b0b0; stroke-width: 0.8"/>
     </g>
     <g id="line2d_58">
      <g>
       <use xlink:href="#m013e3cfca9" x="199.492841" y="540.707885" style="stroke: #000000; stroke-width: 3"/>
      </g>
     </g>
     <g id="text_34">
      <!-- 0.4 -->
      <g style="fill: #3b4252" transform="translate(191.541278 555.306322) scale(0.1 -0.1)">
       <use xlink:href="#DejaVuSans-30"/>
       <use xlink:href="#DejaVuSans-2e" transform="translate(63.623047 0)"/>
       <use xlink:href="#DejaVuSans-34" transform="translate(95.410156 0)"/>
      </g>
     </g>
    </g>
    <g id="xtick_16">
     <g id="line2d_59">
      <path d="M 269.704274 540.707885 
L 269.704274 307.638053 
" clip-path="url(#p27dc997bdd)" style="fill: none; stroke-dasharray: 5.12,1.28,0.8,1.28; stroke-dashoffset: 0; stroke: #b0b0b0; stroke-width: 0.8"/>
     </g>
     <g id="line2d_60">
      <g>
       <use xlink:href="#m013e3cfca9" x="269.704274" y="540.707885" style="stroke: #000000; stroke-width: 3"/>
      </g>
     </g>
     <g id="text_35">
      <!-- 0.6 -->
      <g style="fill: #3b4252" transform="translate(261.752712 555.306322) scale(0.1 -0.1)">
       <use xlink:href="#DejaVuSans-30"/>
       <use xlink:href="#DejaVuSans-2e" transform="translate(63.623047 0)"/>
       <use xlink:href="#DejaVuSans-36" transform="translate(95.410156 0)"/>
      </g>
     </g>
    </g>
    <g id="xtick_17">
     <g id="line2d_61">
      <path d="M 339.915708 540.707885 
L 339.915708 307.638053 
" clip-path="url(#p27dc997bdd)" style="fill: none; stroke-dasharray: 5.12,1.28,0.8,1.28; stroke-dashoffset: 0; stroke: #b0b0b0; stroke-width: 0.8"/>
     </g>
     <g id="line2d_62">
      <g>
       <use xlink:href="#m013e3cfca9" x="339.915708" y="540.707885" style="stroke: #000000; stroke-width: 3"/>
      </g>
     </g>
     <g id="text_36">
      <!-- 0.8 -->
      <g style="fill: #3b4252" transform="translate(331.964145 555.306322) scale(0.1 -0.1)">
       <use xlink:href="#DejaVuSans-30"/>
       <use xlink:href="#DejaVuSans-2e" transform="translate(63.623047 0)"/>
       <use xlink:href="#DejaVuSans-38" transform="translate(95.410156 0)"/>
      </g>
     </g>
    </g>
    <g id="xtick_18">
     <g id="line2d_63">
      <path d="M 410.127142 540.707885 
L 410.127142 307.638053 
" clip-path="url(#p27dc997bdd)" style="fill: none; stroke-dasharray: 5.12,1.28,0.8,1.28; stroke-dashoffset: 0; stroke: #b0b0b0; stroke-width: 0.8"/>
     </g>
     <g id="line2d_64">
      <g>
       <use xlink:href="#m013e3cfca9" x="410.127142" y="540.707885" style="stroke: #000000; stroke-width: 3"/>
      </g>
     </g>
     <g id="text_37">
      <!-- 1.0 -->
      <g style="fill: #3b4252" transform="translate(402.175579 555.306322) scale(0.1 -0.1)">
       <use xlink:href="#DejaVuSans-31"/>
       <use xlink:href="#DejaVuSans-2e" transform="translate(63.623047 0)"/>
       <use xlink:href="#DejaVuSans-30" transform="translate(95.410156 0)"/>
      </g>
     </g>
    </g>
    <g id="text_38">
     <!-- x -->
     <g transform="translate(231.047307 570.504135) scale(0.12 -0.12)">
      <use xlink:href="#DejaVuSans-78"/>
     </g>
    </g>
   </g>
   <g id="matplotlib.axis_6">
    <g id="ytick_13">
     <g id="line2d_65">
      <path d="M 41.517115 530.113802 
L 427.68 530.113802 
" clip-path="url(#p27dc997bdd)" style="fill: none; stroke-dasharray: 5.12,1.28,0.8,1.28; stroke-dashoffset: 0; stroke: #b0b0b0; stroke-width: 0.8"/>
     </g>
     <g id="line2d_66">
      <g>
       <use xlink:href="#mca2363ef0f" x="41.517115" y="530.113802" style="stroke: #000000; stroke-width: 3"/>
      </g>
     </g>
     <g id="text_39">
      <!-- 0.0 -->
      <g style="fill: #3b4252" transform="translate(18.61399 533.91302) scale(0.1 -0.1)">
       <use xlink:href="#DejaVuSans-30"/>
       <use xlink:href="#DejaVuSans-2e" transform="translate(63.623047 0)"/>
       <use xlink:href="#DejaVuSans-30" transform="translate(95.410156 0)"/>
      </g>
     </g>
    </g>
    <g id="ytick_14">
     <g id="line2d_67">
      <path d="M 41.517115 487.735545 
L 427.68 487.735545 
" clip-path="url(#p27dc997bdd)" style="fill: none; stroke-dasharray: 5.12,1.28,0.8,1.28; stroke-dashoffset: 0; stroke: #b0b0b0; stroke-width: 0.8"/>
     </g>
     <g id="line2d_68">
      <g>
       <use xlink:href="#mca2363ef0f" x="41.517115" y="487.735545" style="stroke: #000000; stroke-width: 3"/>
      </g>
     </g>
     <g id="text_40">
      <!-- 0.2 -->
      <g style="fill: #3b4252" transform="translate(18.61399 491.534763) scale(0.1 -0.1)">
       <use xlink:href="#DejaVuSans-30"/>
       <use xlink:href="#DejaVuSans-2e" transform="translate(63.623047 0)"/>
       <use xlink:href="#DejaVuSans-32" transform="translate(95.410156 0)"/>
      </g>
     </g>
    </g>
    <g id="ytick_15">
     <g id="line2d_69">
      <path d="M 41.517115 445.357287 
L 427.68 445.357287 
" clip-path="url(#p27dc997bdd)" style="fill: none; stroke-dasharray: 5.12,1.28,0.8,1.28; stroke-dashoffset: 0; stroke: #b0b0b0; stroke-width: 0.8"/>
     </g>
     <g id="line2d_70">
      <g>
       <use xlink:href="#mca2363ef0f" x="41.517115" y="445.357287" style="stroke: #000000; stroke-width: 3"/>
      </g>
     </g>
     <g id="text_41">
      <!-- 0.4 -->
      <g style="fill: #3b4252" transform="translate(18.61399 449.156506) scale(0.1 -0.1)">
       <use xlink:href="#DejaVuSans-30"/>
       <use xlink:href="#DejaVuSans-2e" transform="translate(63.623047 0)"/>
       <use xlink:href="#DejaVuSans-34" transform="translate(95.410156 0)"/>
      </g>
     </g>
    </g>
    <g id="ytick_16">
     <g id="line2d_71">
      <path d="M 41.517115 402.97903 
L 427.68 402.97903 
" clip-path="url(#p27dc997bdd)" style="fill: none; stroke-dasharray: 5.12,1.28,0.8,1.28; stroke-dashoffset: 0; stroke: #b0b0b0; stroke-width: 0.8"/>
     </g>
     <g id="line2d_72">
      <g>
       <use xlink:href="#mca2363ef0f" x="41.517115" y="402.97903" style="stroke: #000000; stroke-width: 3"/>
      </g>
     </g>
     <g id="text_42">
      <!-- 0.6 -->
      <g style="fill: #3b4252" transform="translate(18.61399 406.778249) scale(0.1 -0.1)">
       <use xlink:href="#DejaVuSans-30"/>
       <use xlink:href="#DejaVuSans-2e" transform="translate(63.623047 0)"/>
       <use xlink:href="#DejaVuSans-36" transform="translate(95.410156 0)"/>
      </g>
     </g>
    </g>
    <g id="ytick_17">
     <g id="line2d_73">
      <path d="M 41.517115 360.600773 
L 427.68 360.600773 
" clip-path="url(#p27dc997bdd)" style="fill: none; stroke-dasharray: 5.12,1.28,0.8,1.28; stroke-dashoffset: 0; stroke: #b0b0b0; stroke-width: 0.8"/>
     </g>
     <g id="line2d_74">
      <g>
       <use xlink:href="#mca2363ef0f" x="41.517115" y="360.600773" style="stroke: #000000; stroke-width: 3"/>
      </g>
     </g>
     <g id="text_43">
      <!-- 0.8 -->
      <g style="fill: #3b4252" transform="translate(18.61399 364.399992) scale(0.1 -0.1)">
       <use xlink:href="#DejaVuSans-30"/>
       <use xlink:href="#DejaVuSans-2e" transform="translate(63.623047 0)"/>
       <use xlink:href="#DejaVuSans-38" transform="translate(95.410156 0)"/>
      </g>
     </g>
    </g>
    <g id="ytick_18">
     <g id="line2d_75">
      <path d="M 41.517115 318.222516 
L 427.68 318.222516 
" clip-path="url(#p27dc997bdd)" style="fill: none; stroke-dasharray: 5.12,1.28,0.8,1.28; stroke-dashoffset: 0; stroke: #b0b0b0; stroke-width: 0.8"/>
     </g>
     <g id="line2d_76">
      <g>
       <use xlink:href="#mca2363ef0f" x="41.517115" y="318.222516" style="stroke: #000000; stroke-width: 3"/>
      </g>
     </g>
     <g id="text_44">
      <!-- 1.0 -->
      <g style="fill: #3b4252" transform="translate(18.61399 322.021735) scale(0.1 -0.1)">
       <use xlink:href="#DejaVuSans-31"/>
       <use xlink:href="#DejaVuSans-2e" transform="translate(63.623047 0)"/>
       <use xlink:href="#DejaVuSans-30" transform="translate(95.410156 0)"/>
      </g>
     </g>
    </g>
    <g id="text_45">
     <!-- $f(\lambda , x)$ -->
     <g transform="translate(12.118365 441.152969) rotate(-90) scale(0.12 -0.12)">
      <use xlink:href="#DejaVuSans-Oblique-66" transform="translate(0 0.015625)"/>
      <use xlink:href="#DejaVuSans-28" transform="translate(35.205078 0.015625)"/>
      <use xlink:href="#DejaVuSans-Oblique-3bb" transform="translate(74.21875 0.015625)"/>
      <use xlink:href="#DejaVuSans-2c" transform="translate(133.398438 0.015625)"/>
      <use xlink:href="#DejaVuSans-Oblique-78" transform="translate(184.667969 0.015625)"/>
      <use xlink:href="#DejaVuSans-29" transform="translate(243.847656 0.015625)"/>
     </g>
    </g>
   </g>
   <g id="line2d_77">
    <path d="M 59.069973 530.113802 
L 62.616005 509.756114 
L 66.162037 491.354313 
L 69.708069 474.720486 
L 73.254101 459.684771 
L 76.800133 446.09363 
L 80.346165 433.808272 
L 83.892197 422.703244 
L 87.438229 412.665143 
L 90.984261 403.591464 
L 94.530293 395.389549 
L 98.076325 387.975641 
L 101.622357 381.274033 
L 105.168389 375.21629 
L 108.714421 369.74055 
L 112.260453 364.790899 
L 115.806485 360.31679 
L 119.352517 356.272536 
L 122.898549 352.616839 
L 126.444581 349.312367 
L 129.990613 346.325375 
L 133.536645 343.625362 
L 137.082677 341.184756 
L 140.628709 338.978633 
L 144.174741 336.984467 
L 147.720773 335.181892 
L 151.266805 333.552501 
L 154.812837 332.079656 
L 158.358869 330.748316 
L 161.904901 329.544886 
L 165.450933 328.457077 
L 168.996965 327.47378 
L 172.542997 326.584955 
L 176.089029 325.781524 
L 179.635061 325.055284 
L 183.181093 324.398819 
L 186.727125 323.805423 
L 190.273157 323.26904 
L 193.819189 322.784189 
L 197.365221 322.345921 
L 200.911253 321.949761 
L 204.457285 321.591662 
L 208.003317 321.267967 
L 211.549349 320.975372 
L 215.095381 320.710888 
L 218.641413 320.471815 
L 222.187445 320.255711 
L 225.733477 320.06037 
L 229.279509 319.883796 
L 232.825541 319.724187 
L 236.371574 319.579912 
L 239.917606 319.449499 
L 243.463638 319.331615 
L 247.00967 319.225057 
L 250.555702 319.128737 
L 254.101734 319.041671 
L 257.647766 318.96297 
L 261.193798 318.89183 
L 264.73983 318.827525 
L 268.285862 318.769398 
L 271.831894 318.716855 
L 275.377926 318.669361 
L 278.923958 318.62643 
L 282.46999 318.587624 
L 286.016022 318.552545 
L 289.562054 318.520838 
L 293.108086 318.492176 
L 296.654118 318.466268 
L 300.20015 318.442849 
L 303.746182 318.421681 
L 307.292214 318.402546 
L 310.838246 318.385249 
L 314.384278 318.369614 
L 317.93031 318.355482 
L 321.476342 318.342707 
L 325.022374 318.331159 
L 328.568406 318.320721 
L 332.114438 318.311286 
L 335.66047 318.302757 
L 339.206502 318.295048 
L 342.752534 318.28808 
L 346.298566 318.28178 
L 349.844598 318.276087 
L 353.39063 318.27094 
L 356.936662 318.266287 
L 360.482694 318.262082 
L 364.028726 318.258281 
L 367.574758 318.254844 
L 371.12079 318.251738 
L 374.666822 318.248931 
L 378.212854 318.246393 
L 381.758886 318.244099 
L 385.304918 318.242025 
L 388.85095 318.240151 
L 392.396982 318.238457 
L 395.943014 318.236925 
L 399.489046 318.235541 
L 403.035078 318.234289 
L 406.58111 318.233158 
L 410.127142 318.232136 
" clip-path="url(#p27dc997bdd)" style="fill: none; stroke: #5e81ac; stroke-width: 1.5; stroke-linecap: square"/>
   </g>
   <g id="line2d_78">
    <path d="M 59.069973 530.113802 
L 62.616005 519.677971 
L 66.162037 509.756114 
L 69.708069 500.322917 
L 73.254101 491.354313 
L 76.800133 482.827421 
L 80.346165 474.720486 
L 83.892197 467.012824 
L 87.438229 459.684771 
L 90.984261 452.717632 
L 94.530293 446.09363 
L 98.076325 439.795866 
L 101.622357 433.808272 
L 105.168389 428.115573 
L 108.714421 422.703244 
L 112.260453 417.557477 
L 115.806485 412.665143 
L 119.352517 408.013761 
L 122.898549 403.591464 
L 126.444581 399.386969 
L 129.990613 395.389549 
L 133.536645 391.589005 
L 137.082677 387.975641 
L 140.628709 384.540239 
L 144.174741 381.274033 
L 147.720773 378.168691 
L 151.266805 375.21629 
L 154.812837 372.409296 
L 158.358869 369.74055 
L 161.904901 367.203242 
L 165.450933 364.790899 
L 168.996965 362.497365 
L 172.542997 360.31679 
L 176.089029 358.24361 
L 179.635061 356.272536 
L 183.181093 354.39854 
L 186.727125 352.616839 
L 190.273157 350.922889 
L 193.819189 349.312367 
L 197.365221 347.781164 
L 200.911253 346.325375 
L 204.457285 344.941285 
L 208.003317 343.625362 
L 211.549349 342.37425 
L 215.095381 341.184756 
L 218.641413 340.053845 
L 222.187445 338.978633 
L 225.733477 337.956376 
L 229.279509 336.984467 
L 232.825541 336.060424 
L 236.371574 335.181892 
L 239.917606 334.346628 
L 243.463638 333.552501 
L 247.00967 332.797486 
L 250.555702 332.079656 
L 254.101734 331.39718 
L 257.647766 330.748316 
L 261.193798 330.131409 
L 264.73983 329.544886 
L 268.285862 328.987249 
L 271.831894 328.457077 
L 275.377926 327.953016 
L 278.923958 327.47378 
L 282.46999 327.018147 
L 286.016022 326.584955 
L 289.562054 326.173097 
L 293.108086 325.781524 
L 296.654118 325.409237 
L 300.20015 325.055284 
L 303.746182 324.718764 
L 307.292214 324.398819 
L 310.838246 324.09463 
L 314.384278 323.805423 
L 317.93031 323.53046 
L 321.476342 323.26904 
L 325.022374 323.020494 
L 328.568406 322.784189 
L 332.114438 322.559523 
L 335.66047 322.345921 
L 339.206502 322.14284 
L 342.752534 321.949761 
L 346.298566 321.766191 
L 349.844598 321.591662 
L 353.39063 321.425728 
L 356.936662 321.267967 
L 360.482694 321.117976 
L 364.028726 320.975372 
L 367.574758 320.839792 
L 371.12079 320.710888 
L 374.666822 320.588334 
L 378.212854 320.471815 
L 381.758886 320.361035 
L 385.304918 320.255711 
L 388.85095 320.155575 
L 392.396982 320.06037 
L 395.943014 319.969854 
L 399.489046 319.883796 
L 403.035078 319.801977 
L 406.58111 319.724187 
L 410.127142 319.650228 
" clip-path="url(#p27dc997bdd)" style="fill: none; stroke: #d08770; stroke-width: 1.5; stroke-linecap: square"/>
   </g>
   <g id="patch_15">
    <path d="M 41.517115 540.707885 
L 41.517115 307.638053 
" style="fill: none; stroke: #000000; stroke-width: 0.8; stroke-linejoin: miter; stroke-linecap: square"/>
   </g>
   <g id="patch_16">
    <path d="M 427.68 540.707885 
L 427.68 307.638053 
" style="fill: none; stroke: #000000; stroke-width: 0.8; stroke-linejoin: miter; stroke-linecap: square"/>
   </g>
   <g id="patch_17">
    <path d="M 41.517115 540.707885 
L 427.68 540.707885 
" style="fill: none; stroke: #000000; stroke-width: 0.8; stroke-linejoin: miter; stroke-linecap: square"/>
   </g>
   <g id="patch_18">
    <path d="M 41.517115 307.638053 
L 427.68 307.638053 
" style="fill: none; stroke: #000000; stroke-width: 0.8; stroke-linejoin: miter; stroke-linecap: square"/>
   </g>
   <g id="text_46">
    <!-- $\lambda = 10$ vs $\lambda = 5$ -->
    <g transform="translate(190.798557 301.638053) scale(0.12 -0.12)">
     <defs>
      <path id="DejaVuSans-20" transform="scale(0.015625)"/>
      <path id="DejaVuSans-76" d="M 191 3500 
L 800 3500 
L 1894 563 
L 2988 3500 
L 3597 3500 
L 2284 0 
L 1503 0 
L 191 3500 
z
" transform="scale(0.015625)"/>
      <path id="DejaVuSans-73" d="M 2834 3397 
L 2834 2853 
Q 2591 2978 2328 3040 
Q 2066 3103 1784 3103 
Q 1356 3103 1142 2972 
Q 928 2841 928 2578 
Q 928 2378 1081 2264 
Q 1234 2150 1697 2047 
L 1894 2003 
Q 2506 1872 2764 1633 
Q 3022 1394 3022 966 
Q 3022 478 2636 193 
Q 2250 -91 1575 -91 
Q 1294 -91 989 -36 
Q 684 19 347 128 
L 347 722 
Q 666 556 975 473 
Q 1284 391 1588 391 
Q 1994 391 2212 530 
Q 2431 669 2431 922 
Q 2431 1156 2273 1281 
Q 2116 1406 1581 1522 
L 1381 1569 
Q 847 1681 609 1914 
Q 372 2147 372 2553 
Q 372 3047 722 3315 
Q 1072 3584 1716 3584 
Q 2034 3584 2315 3537 
Q 2597 3491 2834 3397 
z
" transform="scale(0.015625)"/>
     </defs>
     <use xlink:href="#DejaVuSans-Oblique-3bb" transform="translate(0 0.015625)"/>
     <use xlink:href="#DejaVuSans-3d" transform="translate(78.662109 0.015625)"/>
     <use xlink:href="#DejaVuSans-31" transform="translate(181.933594 0.015625)"/>
     <use xlink:href="#DejaVuSans-30" transform="translate(245.556641 0.015625)"/>
     <use xlink:href="#DejaVuSans-20" transform="translate(309.179688 0.015625)"/>
     <use xlink:href="#DejaVuSans-76" transform="translate(340.966797 0.015625)"/>
     <use xlink:href="#DejaVuSans-73" transform="translate(400.146484 0.015625)"/>
     <use xlink:href="#DejaVuSans-20" transform="translate(452.246094 0.015625)"/>
     <use xlink:href="#DejaVuSans-Oblique-3bb" transform="translate(484.033203 0.015625)"/>
     <use xlink:href="#DejaVuSans-3d" transform="translate(562.695312 0.015625)"/>
     <use xlink:href="#DejaVuSans-35" transform="translate(665.966797 0.015625)"/>
    </g>
   </g>
   <g id="legend_3">
    <g id="patch_19">
     <path d="M 49.917115 352.465553 
L 122.277115 352.465553 
Q 124.677115 352.465553 124.677115 350.065553 
L 124.677115 316.038052 
Q 124.677115 313.638053 122.277115 313.638053 
L 49.917115 313.638053 
Q 47.517115 313.638053 47.517115 316.038052 
L 47.517115 350.065553 
Q 47.517115 352.465553 49.917115 352.465553 
z
" style="fill: #ffffff; opacity: 0.8; stroke: #cccccc; stroke-linejoin: miter"/>
    </g>
    <g id="line2d_79">
     <path d="M 52.317115 323.356178 
L 64.317115 323.356178 
L 76.317115 323.356178 
" style="fill: none; stroke: #5e81ac; stroke-width: 1.5; stroke-linecap: square"/>
    </g>
    <g id="text_47">
     <!-- $f(\lambda, x)$ -->
     <g transform="translate(85.917115 327.556177) scale(0.12 -0.12)">
      <use xlink:href="#DejaVuSans-Oblique-66" transform="translate(0 0.015625)"/>
      <use xlink:href="#DejaVuSans-28" transform="translate(35.205078 0.015625)"/>
      <use xlink:href="#DejaVuSans-Oblique-3bb" transform="translate(74.21875 0.015625)"/>
      <use xlink:href="#DejaVuSans-2c" transform="translate(133.398438 0.015625)"/>
      <use xlink:href="#DejaVuSans-Oblique-78" transform="translate(184.667969 0.015625)"/>
      <use xlink:href="#DejaVuSans-29" transform="translate(243.847656 0.015625)"/>
     </g>
    </g>
    <g id="line2d_80">
     <path d="M 52.317115 340.969928 
L 64.317115 340.969928 
L 76.317115 340.969928 
" style="fill: none; stroke: #d08770; stroke-width: 1.5; stroke-linecap: square"/>
    </g>
    <g id="text_48">
     <!-- $f(\lambda, x)$ -->
     <g transform="translate(85.917115 345.169928) scale(0.12 -0.12)">
      <use xlink:href="#DejaVuSans-Oblique-66" transform="translate(0 0.015625)"/>
      <use xlink:href="#DejaVuSans-28" transform="translate(35.205078 0.015625)"/>
      <use xlink:href="#DejaVuSans-Oblique-3bb" transform="translate(74.21875 0.015625)"/>
      <use xlink:href="#DejaVuSans-2c" transform="translate(133.398438 0.015625)"/>
      <use xlink:href="#DejaVuSans-Oblique-78" transform="translate(184.667969 0.015625)"/>
      <use xlink:href="#DejaVuSans-29" transform="translate(243.847656 0.015625)"/>
     </g>
    </g>
   </g>
  </g>
  <g id="axes_4">
   <g id="patch_20">
    <path d="M 474.836875 540.707885 
L 860.99976 540.707885 
L 860.99976 307.638053 
L 474.836875 307.638053 
z
" style="fill: #ffffff"/>
   </g>
   <g id="matplotlib.axis_7">
    <g id="xtick_19">
     <g id="line2d_81">
      <path d="M 492.389733 540.707885 
L 492.389733 307.638053 
" clip-path="url(#p2c7ea50f27)" style="fill: none; stroke-dasharray: 5.12,1.28,0.8,1.28; stroke-dashoffset: 0; stroke: #b0b0b0; stroke-width: 0.8"/>
     </g>
     <g id="line2d_82">
      <g>
       <use xlink:href="#m013e3cfca9" x="492.389733" y="540.707885" style="stroke: #000000; stroke-width: 3"/>
      </g>
     </g>
     <g id="text_49">
      <!-- 0.0 -->
      <g style="fill: #3b4252" transform="translate(484.438171 555.306322) scale(0.1 -0.1)">
       <use xlink:href="#DejaVuSans-30"/>
       <use xlink:href="#DejaVuSans-2e" transform="translate(63.623047 0)"/>
       <use xlink:href="#DejaVuSans-30" transform="translate(95.410156 0)"/>
      </g>
     </g>
    </g>
    <g id="xtick_20">
     <g id="line2d_83">
      <path d="M 563.077457 540.707885 
L 563.077457 307.638053 
" clip-path="url(#p2c7ea50f27)" style="fill: none; stroke-dasharray: 5.12,1.28,0.8,1.28; stroke-dashoffset: 0; stroke: #b0b0b0; stroke-width: 0.8"/>
     </g>
     <g id="line2d_84">
      <g>
       <use xlink:href="#m013e3cfca9" x="563.077457" y="540.707885" style="stroke: #000000; stroke-width: 3"/>
      </g>
     </g>
     <g id="text_50">
      <!-- 0.2 -->
      <g style="fill: #3b4252" transform="translate(555.125895 555.306322) scale(0.1 -0.1)">
       <use xlink:href="#DejaVuSans-30"/>
       <use xlink:href="#DejaVuSans-2e" transform="translate(63.623047 0)"/>
       <use xlink:href="#DejaVuSans-32" transform="translate(95.410156 0)"/>
      </g>
     </g>
    </g>
    <g id="xtick_21">
     <g id="line2d_85">
      <path d="M 633.765181 540.707885 
L 633.765181 307.638053 
" clip-path="url(#p2c7ea50f27)" style="fill: none; stroke-dasharray: 5.12,1.28,0.8,1.28; stroke-dashoffset: 0; stroke: #b0b0b0; stroke-width: 0.8"/>
     </g>
     <g id="line2d_86">
      <g>
       <use xlink:href="#m013e3cfca9" x="633.765181" y="540.707885" style="stroke: #000000; stroke-width: 3"/>
      </g>
     </g>
     <g id="text_51">
      <!-- 0.4 -->
      <g style="fill: #3b4252" transform="translate(625.813618 555.306322) scale(0.1 -0.1)">
       <use xlink:href="#DejaVuSans-30"/>
       <use xlink:href="#DejaVuSans-2e" transform="translate(63.623047 0)"/>
       <use xlink:href="#DejaVuSans-34" transform="translate(95.410156 0)"/>
      </g>
     </g>
    </g>
    <g id="xtick_22">
     <g id="line2d_87">
      <path d="M 704.452905 540.707885 
L 704.452905 307.638053 
" clip-path="url(#p2c7ea50f27)" style="fill: none; stroke-dasharray: 5.12,1.28,0.8,1.28; stroke-dashoffset: 0; stroke: #b0b0b0; stroke-width: 0.8"/>
     </g>
     <g id="line2d_88">
      <g>
       <use xlink:href="#m013e3cfca9" x="704.452905" y="540.707885" style="stroke: #000000; stroke-width: 3"/>
      </g>
     </g>
     <g id="text_52">
      <!-- 0.6 -->
      <g style="fill: #3b4252" transform="translate(696.501342 555.306322) scale(0.1 -0.1)">
       <use xlink:href="#DejaVuSans-30"/>
       <use xlink:href="#DejaVuSans-2e" transform="translate(63.623047 0)"/>
       <use xlink:href="#DejaVuSans-36" transform="translate(95.410156 0)"/>
      </g>
     </g>
    </g>
    <g id="xtick_23">
     <g id="line2d_89">
      <path d="M 775.140628 540.707885 
L 775.140628 307.638053 
" clip-path="url(#p2c7ea50f27)" style="fill: none; stroke-dasharray: 5.12,1.28,0.8,1.28; stroke-dashoffset: 0; stroke: #b0b0b0; stroke-width: 0.8"/>
     </g>
     <g id="line2d_90">
      <g>
       <use xlink:href="#m013e3cfca9" x="775.140628" y="540.707885" style="stroke: #000000; stroke-width: 3"/>
      </g>
     </g>
     <g id="text_53">
      <!-- 0.8 -->
      <g style="fill: #3b4252" transform="translate(767.189066 555.306322) scale(0.1 -0.1)">
       <use xlink:href="#DejaVuSans-30"/>
       <use xlink:href="#DejaVuSans-2e" transform="translate(63.623047 0)"/>
       <use xlink:href="#DejaVuSans-38" transform="translate(95.410156 0)"/>
      </g>
     </g>
    </g>
    <g id="xtick_24">
     <g id="line2d_91">
      <path d="M 845.828352 540.707885 
L 845.828352 307.638053 
" clip-path="url(#p2c7ea50f27)" style="fill: none; stroke-dasharray: 5.12,1.28,0.8,1.28; stroke-dashoffset: 0; stroke: #b0b0b0; stroke-width: 0.8"/>
     </g>
     <g id="line2d_92">
      <g>
       <use xlink:href="#m013e3cfca9" x="845.828352" y="540.707885" style="stroke: #000000; stroke-width: 3"/>
      </g>
     </g>
     <g id="text_54">
      <!-- 1.0 -->
      <g style="fill: #3b4252" transform="translate(837.87679 555.306322) scale(0.1 -0.1)">
       <use xlink:href="#DejaVuSans-31"/>
       <use xlink:href="#DejaVuSans-2e" transform="translate(63.623047 0)"/>
       <use xlink:href="#DejaVuSans-30" transform="translate(95.410156 0)"/>
      </g>
     </g>
    </g>
    <g id="text_55">
     <!-- $f(\lambda = 5, x)$ -->
     <g transform="translate(639.718317 570.504135) scale(0.12 -0.12)">
      <use xlink:href="#DejaVuSans-Oblique-66" transform="translate(0 0.015625)"/>
      <use xlink:href="#DejaVuSans-28" transform="translate(35.205078 0.015625)"/>
      <use xlink:href="#DejaVuSans-Oblique-3bb" transform="translate(74.21875 0.015625)"/>
      <use xlink:href="#DejaVuSans-3d" transform="translate(152.880859 0.015625)"/>
      <use xlink:href="#DejaVuSans-35" transform="translate(256.152344 0.015625)"/>
      <use xlink:href="#DejaVuSans-2c" transform="translate(319.775391 0.015625)"/>
      <use xlink:href="#DejaVuSans-Oblique-78" transform="translate(371.044922 0.015625)"/>
      <use xlink:href="#DejaVuSans-29" transform="translate(430.224609 0.015625)"/>
     </g>
    </g>
   </g>
   <g id="matplotlib.axis_8">
    <g id="ytick_19">
     <g id="line2d_93">
      <path d="M 474.836875 530.113802 
L 860.99976 530.113802 
" clip-path="url(#p2c7ea50f27)" style="fill: none; stroke-dasharray: 5.12,1.28,0.8,1.28; stroke-dashoffset: 0; stroke: #b0b0b0; stroke-width: 0.8"/>
     </g>
     <g id="line2d_94">
      <g>
       <use xlink:href="#mca2363ef0f" x="474.836875" y="530.113802" style="stroke: #000000; stroke-width: 3"/>
      </g>
     </g>
     <g id="text_56">
      <!-- 0.0 -->
      <g style="fill: #3b4252" transform="translate(451.93375 533.91302) scale(0.1 -0.1)">
       <use xlink:href="#DejaVuSans-30"/>
       <use xlink:href="#DejaVuSans-2e" transform="translate(63.623047 0)"/>
       <use xlink:href="#DejaVuSans-30" transform="translate(95.410156 0)"/>
      </g>
     </g>
    </g>
    <g id="ytick_20">
     <g id="line2d_95">
      <path d="M 474.836875 487.735545 
L 860.99976 487.735545 
" clip-path="url(#p2c7ea50f27)" style="fill: none; stroke-dasharray: 5.12,1.28,0.8,1.28; stroke-dashoffset: 0; stroke: #b0b0b0; stroke-width: 0.8"/>
     </g>
     <g id="line2d_96">
      <g>
       <use xlink:href="#mca2363ef0f" x="474.836875" y="487.735545" style="stroke: #000000; stroke-width: 3"/>
      </g>
     </g>
     <g id="text_57">
      <!-- 0.2 -->
      <g style="fill: #3b4252" transform="translate(451.93375 491.534763) scale(0.1 -0.1)">
       <use xlink:href="#DejaVuSans-30"/>
       <use xlink:href="#DejaVuSans-2e" transform="translate(63.623047 0)"/>
       <use xlink:href="#DejaVuSans-32" transform="translate(95.410156 0)"/>
      </g>
     </g>
    </g>
    <g id="ytick_21">
     <g id="line2d_97">
      <path d="M 474.836875 445.357287 
L 860.99976 445.357287 
" clip-path="url(#p2c7ea50f27)" style="fill: none; stroke-dasharray: 5.12,1.28,0.8,1.28; stroke-dashoffset: 0; stroke: #b0b0b0; stroke-width: 0.8"/>
     </g>
     <g id="line2d_98">
      <g>
       <use xlink:href="#mca2363ef0f" x="474.836875" y="445.357287" style="stroke: #000000; stroke-width: 3"/>
      </g>
     </g>
     <g id="text_58">
      <!-- 0.4 -->
      <g style="fill: #3b4252" transform="translate(451.93375 449.156506) scale(0.1 -0.1)">
       <use xlink:href="#DejaVuSans-30"/>
       <use xlink:href="#DejaVuSans-2e" transform="translate(63.623047 0)"/>
       <use xlink:href="#DejaVuSans-34" transform="translate(95.410156 0)"/>
      </g>
     </g>
    </g>
    <g id="ytick_22">
     <g id="line2d_99">
      <path d="M 474.836875 402.97903 
L 860.99976 402.97903 
" clip-path="url(#p2c7ea50f27)" style="fill: none; stroke-dasharray: 5.12,1.28,0.8,1.28; stroke-dashoffset: 0; stroke: #b0b0b0; stroke-width: 0.8"/>
     </g>
     <g id="line2d_100">
      <g>
       <use xlink:href="#mca2363ef0f" x="474.836875" y="402.97903" style="stroke: #000000; stroke-width: 3"/>
      </g>
     </g>
     <g id="text_59">
      <!-- 0.6 -->
      <g style="fill: #3b4252" transform="translate(451.93375 406.778249) scale(0.1 -0.1)">
       <use xlink:href="#DejaVuSans-30"/>
       <use xlink:href="#DejaVuSans-2e" transform="translate(63.623047 0)"/>
       <use xlink:href="#DejaVuSans-36" transform="translate(95.410156 0)"/>
      </g>
     </g>
    </g>
    <g id="ytick_23">
     <g id="line2d_101">
      <path d="M 474.836875 360.600773 
L 860.99976 360.600773 
" clip-path="url(#p2c7ea50f27)" style="fill: none; stroke-dasharray: 5.12,1.28,0.8,1.28; stroke-dashoffset: 0; stroke: #b0b0b0; stroke-width: 0.8"/>
     </g>
     <g id="line2d_102">
      <g>
       <use xlink:href="#mca2363ef0f" x="474.836875" y="360.600773" style="stroke: #000000; stroke-width: 3"/>
      </g>
     </g>
     <g id="text_60">
      <!-- 0.8 -->
      <g style="fill: #3b4252" transform="translate(451.93375 364.399992) scale(0.1 -0.1)">
       <use xlink:href="#DejaVuSans-30"/>
       <use xlink:href="#DejaVuSans-2e" transform="translate(63.623047 0)"/>
       <use xlink:href="#DejaVuSans-38" transform="translate(95.410156 0)"/>
      </g>
     </g>
    </g>
    <g id="ytick_24">
     <g id="line2d_103">
      <path d="M 474.836875 318.222516 
L 860.99976 318.222516 
" clip-path="url(#p2c7ea50f27)" style="fill: none; stroke-dasharray: 5.12,1.28,0.8,1.28; stroke-dashoffset: 0; stroke: #b0b0b0; stroke-width: 0.8"/>
     </g>
     <g id="line2d_104">
      <g>
       <use xlink:href="#mca2363ef0f" x="474.836875" y="318.222516" style="stroke: #000000; stroke-width: 3"/>
      </g>
     </g>
     <g id="text_61">
      <!-- 1.0 -->
      <g style="fill: #3b4252" transform="translate(451.93375 322.021735) scale(0.1 -0.1)">
       <use xlink:href="#DejaVuSans-31"/>
       <use xlink:href="#DejaVuSans-2e" transform="translate(63.623047 0)"/>
       <use xlink:href="#DejaVuSans-30" transform="translate(95.410156 0)"/>
      </g>
     </g>
    </g>
    <g id="text_62">
     <!-- $f(\lambda = 10, x)$ -->
     <g transform="translate(445.438125 456.152969) rotate(-90) scale(0.12 -0.12)">
      <use xlink:href="#DejaVuSans-Oblique-66" transform="translate(0 0.015625)"/>
      <use xlink:href="#DejaVuSans-28" transform="translate(35.205078 0.015625)"/>
      <use xlink:href="#DejaVuSans-Oblique-3bb" transform="translate(74.21875 0.015625)"/>
      <use xlink:href="#DejaVuSans-3d" transform="translate(152.880859 0.015625)"/>
      <use xlink:href="#DejaVuSans-31" transform="translate(256.152344 0.015625)"/>
      <use xlink:href="#DejaVuSans-30" transform="translate(319.775391 0.015625)"/>
      <use xlink:href="#DejaVuSans-2c" transform="translate(383.398438 0.015625)"/>
      <use xlink:href="#DejaVuSans-Oblique-78" transform="translate(434.667969 0.015625)"/>
      <use xlink:href="#DejaVuSans-29" transform="translate(493.847656 0.015625)"/>
     </g>
    </g>
   </g>
   <g id="line2d_105">
    <path d="M 492.389733 530.113802 
L 509.796894 509.756114 
L 526.346737 491.354313 
L 542.081485 474.720486 
L 557.041284 459.684771 
L 571.264299 446.09363 
L 584.786818 433.808272 
L 597.643342 422.703244 
L 609.86667 412.665143 
L 621.487989 403.591464 
L 632.536948 395.389549 
L 643.041736 387.975641 
L 653.029154 381.274033 
L 662.524682 375.21629 
L 671.552548 369.74055 
L 680.135784 364.790899 
L 688.296287 360.31679 
L 696.054879 356.272536 
L 703.431353 352.616839 
L 710.44453 349.312367 
L 717.112301 346.325375 
L 723.451679 343.625362 
L 729.478837 341.184756 
L 735.209153 338.978633 
L 740.657245 336.984467 
L 745.837014 335.181892 
L 750.761674 333.552501 
L 755.443791 332.079656 
L 759.89531 330.748316 
L 764.127587 329.544886 
L 768.151421 328.457077 
L 771.977078 327.47378 
L 775.614318 326.584955 
L 779.07242 325.781524 
L 782.360208 325.055284 
L 785.48607 324.398819 
L 788.45798 323.805423 
L 791.283521 323.26904 
L 793.969901 322.784189 
L 796.523975 322.345921 
L 798.952259 321.949761 
L 801.260947 321.591662 
L 803.455931 321.267967 
L 805.54281 320.975372 
L 807.526908 320.710888 
L 809.413287 320.471815 
L 811.206761 320.255711 
L 812.911905 320.06037 
L 814.533069 319.883796 
L 816.074389 319.724187 
L 817.539797 319.579912 
L 818.933033 319.449499 
L 820.257651 319.331615 
L 821.517031 319.225057 
L 822.714384 319.128737 
L 823.852767 319.041671 
L 824.935084 318.96297 
L 825.964096 318.89183 
L 826.942428 318.827525 
L 827.872576 318.769398 
L 828.756914 318.716855 
L 829.597697 318.669361 
L 830.397071 318.62643 
L 831.157075 318.587624 
L 831.879648 318.552545 
L 832.566634 318.520838 
L 833.219785 318.492176 
L 833.840768 318.466268 
L 834.431167 318.442849 
L 834.992489 318.421681 
L 835.526164 318.402546 
L 836.033556 318.385249 
L 836.515958 318.369614 
L 836.974602 318.355482 
L 837.410657 318.342707 
L 837.825236 318.331159 
L 838.219396 318.320721 
L 838.594144 318.311286 
L 838.950435 318.302757 
L 839.289178 318.295048 
L 839.611238 318.28808 
L 839.917437 318.28178 
L 840.208554 318.276087 
L 840.485334 318.27094 
L 840.748483 318.266287 
L 840.998671 318.262082 
L 841.236537 318.258281 
L 841.462688 318.254844 
L 841.6777 318.251738 
L 841.882124 318.248931 
L 842.076479 318.246393 
L 842.261262 318.244099 
L 842.436944 318.242025 
L 842.603974 318.240151 
L 842.762777 318.238457 
L 842.91376 318.236925 
L 843.057306 318.235541 
L 843.193782 318.234289 
L 843.323537 318.233158 
L 843.446902 318.232136 
" clip-path="url(#p2c7ea50f27)" style="fill: none; stroke: #92ab7e; stroke-width: 1.5; stroke-linecap: square"/>
   </g>
   <g id="patch_21">
    <path d="M 474.836875 540.707885 
L 474.836875 307.638053 
" style="fill: none; stroke: #000000; stroke-width: 0.8; stroke-linejoin: miter; stroke-linecap: square"/>
   </g>
   <g id="patch_22">
    <path d="M 860.99976 540.707885 
L 860.99976 307.638053 
" style="fill: none; stroke: #000000; stroke-width: 0.8; stroke-linejoin: miter; stroke-linecap: square"/>
   </g>
   <g id="patch_23">
    <path d="M 474.836875 540.707885 
L 860.99976 540.707885 
" style="fill: none; stroke: #000000; stroke-width: 0.8; stroke-linejoin: miter; stroke-linecap: square"/>
   </g>
   <g id="patch_24">
    <path d="M 474.836875 307.638053 
L 860.99976 307.638053 
" style="fill: none; stroke: #000000; stroke-width: 0.8; stroke-linejoin: miter; stroke-linecap: square"/>
   </g>
   <g id="text_63">
    <!-- $\forall x \in [0,1] $ -->
    <g transform="translate(632.148317 301.638053) scale(0.14 -0.14)">
     <defs>
      <path id="DejaVuSans-2200" d="M 2188 622 
L 3047 2944 
L 1331 2944 
L 2188 622 
z
M 1831 0 
L 50 4666 
L 716 4666 
L 1141 3469 
L 3244 3469 
L 3669 4666 
L 4325 4666 
L 2547 0 
L 1831 0 
z
" transform="scale(0.015625)"/>
      <path id="DejaVuSans-2208" d="M 1072 1959 
Q 1094 1728 1291 1353 
Q 1522 919 1959 675 
Q 2388 438 2850 434 
L 5028 434 
L 5028 -63 
L 2850 -63 
Q 2250 -63 1695 246 
Q 1141 556 844 1106 
Q 547 1656 547 2241 
Q 547 2819 844 3369 
Q 1141 3919 1695 4231 
Q 2250 4544 2850 4544 
L 5028 4544 
L 5028 4047 
L 2850 4047 
Q 2388 4044 1959 3803 
Q 1525 3556 1291 3125 
Q 1091 2750 1063 2459 
L 5028 2459 
L 5028 1959 
L 1072 1959 
z
" transform="scale(0.015625)"/>
      <path id="DejaVuSans-5b" d="M 550 4863 
L 1875 4863 
L 1875 4416 
L 1125 4416 
L 1125 -397 
L 1875 -397 
L 1875 -844 
L 550 -844 
L 550 4863 
z
" transform="scale(0.015625)"/>
      <path id="DejaVuSans-5d" d="M 1947 4863 
L 1947 -844 
L 622 -844 
L 622 -397 
L 1369 -397 
L 1369 4416 
L 622 4416 
L 622 4863 
L 1947 4863 
z
" transform="scale(0.015625)"/>
     </defs>
     <use xlink:href="#DejaVuSans-2200" transform="translate(0 0.015625)"/>
     <use xlink:href="#DejaVuSans-Oblique-78" transform="translate(68.408203 0.015625)"/>
     <use xlink:href="#DejaVuSans-2208" transform="translate(147.070312 0.015625)"/>
     <use xlink:href="#DejaVuSans-5b" transform="translate(253.662109 0.015625)"/>
     <use xlink:href="#DejaVuSans-30" transform="translate(292.675781 0.015625)"/>
     <use xlink:href="#DejaVuSans-2c" transform="translate(356.298828 0.015625)"/>
     <use xlink:href="#DejaVuSans-31" transform="translate(407.568359 0.015625)"/>
     <use xlink:href="#DejaVuSans-5d" transform="translate(471.191406 0.015625)"/>
    </g>
   </g>
   <g id="legend_4">
    <g id="patch_25">
     <path d="M 483.236875 334.851803 
L 555.596875 334.851803 
Q 557.996875 334.851803 557.996875 332.451802 
L 557.996875 316.038052 
Q 557.996875 313.638053 555.596875 313.638053 
L 483.236875 313.638053 
Q 480.836875 313.638053 480.836875 316.038052 
L 480.836875 332.451802 
Q 480.836875 334.851803 483.236875 334.851803 
z
" style="fill: #ffffff; opacity: 0.8; stroke: #cccccc; stroke-linejoin: miter"/>
    </g>
    <g id="line2d_106">
     <path d="M 485.636875 323.356178 
L 497.636875 323.356178 
L 509.636875 323.356178 
" style="fill: none; stroke: #92ab7e; stroke-width: 1.5; stroke-linecap: square"/>
    </g>
    <g id="text_64">
     <!-- $f(\lambda, x)$ -->
     <g transform="translate(519.236875 327.556177) scale(0.12 -0.12)">
      <use xlink:href="#DejaVuSans-Oblique-66" transform="translate(0 0.015625)"/>
      <use xlink:href="#DejaVuSans-28" transform="translate(35.205078 0.015625)"/>
      <use xlink:href="#DejaVuSans-Oblique-3bb" transform="translate(74.21875 0.015625)"/>
      <use xlink:href="#DejaVuSans-2c" transform="translate(133.398438 0.015625)"/>
      <use xlink:href="#DejaVuSans-Oblique-78" transform="translate(184.667969 0.015625)"/>
      <use xlink:href="#DejaVuSans-29" transform="translate(243.847656 0.015625)"/>
     </g>
    </g>
   </g>
  </g>
 </g>
 <defs>
  <clipPath id="p35e7e0c455">
   <rect x="41.517115" y="19.638052" width="386.162885" height="233.069833"/>
  </clipPath>
  <clipPath id="p327d569916">
   <rect x="474.836875" y="19.638052" width="386.162885" height="233.069833"/>
  </clipPath>
  <clipPath id="p27dc997bdd">
   <rect x="41.517115" y="307.638053" width="386.162885" height="233.069832"/>
  </clipPath>
  <clipPath id="p2c7ea50f27">
   <rect x="474.836875" y="307.638053" width="386.162885" height="233.069832"/>
  </clipPath>
 </defs>
</svg>
